<?xml version="1.0" encoding="UTF-8" standalone="no"?><svg xmlns="http://www.w3.org/2000/svg" xmlns:xlink="http://www.w3.org/1999/xlink" contentStyleType="text/css" height="1372px" preserveAspectRatio="none" style="width:1401px;height:1372px;background:#FFFFFF;" version="1.1" viewBox="0 0 1401 1372" width="1401px" zoomAndPan="magnify"><defs/><g><!--cluster Cloud--><g id="cluster_Cloud"><path d="M71.0355,57.2383 C94.9098,26.2096 123.7577,26.6947 146.5251,58.5669 C166.2485,21.4518 192.8621,19.5012 222.3189,47.1813 C248.1896,12.8865 276.1479,19.2564 294.7567,54.7219 C310.82,11.602 352.4706,6 378.4445,44.5687 C402.8566,11.9871 435.2139,9.5698 456.3956,48.1092 C484.5964,15.6282 506.7265,15.8835 529.6088,53.6521 C551.776,27.8288 575.1426,27.2945 595.1936,56.1886 C613.7486,6.834 652.6331,7.4814 680.7217,47.0155 C702.5035,11.4708 731.4367,16.142 749.6602,50.5236 C778.2879,7.3986 803.6206,8.6227 830.4601,52.1902 C838.27,49.0294 842.1902,53.9139 841.5318,61.1811 C882.8264,88.503 882.2658,126.6243 835.8059,148.1698 C878.4293,168.2812 877.7191,194.5288 845.8103,224.4192 C893.0539,251.242 895.0943,294.3879 844.9565,320.344 C890.2414,348.3203 880.8652,378.3424 843.5414,404.9368 C877.7521,431.8001 876.3259,466.7956 839.6193,490.4045 C872.1942,511.5857 877.3519,547.8079 839.933,569.2675 C881.6375,591.61 884.5633,626.1312 852.4796,658.8125 C888.9541,681.0872 886.9584,718.4676 851.0975,739.5032 C893.1999,770.0191 895.0919,799.4772 848.3221,827.1799 C882.4946,855.86 880.0076,884.2375 844.5403,909.7271 C891.2466,939.2341 882.5561,969.5949 843.2276,997.8198 C877.8258,1020.2941 879.2716,1059.9295 842.7664,1082.0145 C876.525,1107.99 873.4545,1136.5261 840.9929,1161.015 C881.7142,1197.941 875.2742,1229.8751 823.4601,1248.1902 C829.3716,1251.2439 830.6488,1254.7605 825.8249,1259.9694 C797.0774,1297.7039 768.4047,1293.2235 747.3102,1252.3277 C728.9952,1283.0726 701.7275,1290.786 679.1427,1256.826 C658.992,1296.6376 636.5488,1293.1725 608.6337,1264.8626 C577.4608,1308.3726 545.8739,1297.7502 519.358,1259.7613 C496.471,1293.472 476.2839,1292.8222 453.4477,1259.7112 C431.7635,1299.5467 399.515,1308.1642 372.196,1265.2435 C345.6122,1307.865 314.7195,1301.3072 291.6709,1261.7782 C268.4735,1296.5003 237.0372,1293.9027 216.2241,1259.1875 C193.7847,1289.1042 160.2318,1288.8545 147.4472,1249.5892 C119.1487,1293.3387 74.1435,1292.82 54.4601,1241.1902 C57.4928,1240.425 59.5707,1241.6614 59.311,1245.0423 C28.5503,1218.4685 23.5682,1184.8078 66.5466,1164.8908 C22.2134,1145.0878 18.6495,1110.6048 61.0397,1084.8361 C15.401,1052.9741 17.7229,1015.4198 64.5099,986.8304 C23.9084,970.7397 20.1278,931.5803 56.3604,907.5877 C17.1857,885.8746 12.4205,857.9784 47.6196,828.088 C6.1577,801.0712 17.3474,757.6193 56.962,739.1158 C15.9007,714.4841 6,678.8576 49.5402,647.3812 C12.068,619.9232 21.826,584.4053 60.3565,567.1999 C16.4528,545.3745 21.4965,503.9658 58.726,480.6128 C25.1589,452.0671 26.8776,426.3245 61.8464,400.4466 C11.9781,374.2035 20.4482,336.5522 61.3645,309.8263 C23.8502,287.1466 18.9325,252.4656 56.1957,225.2178 C23.4024,198.0763 22.6724,171.2284 63.5585,151.4399 C17.4928,116.2177 17.0067,82.2001 61.4601,45.1902 C70.3694,43.2143 74.5055,49.3757 71.0355,57.2383 " fill="none" style="stroke:#181818;stroke-width:1.0;"/><text fill="#000000" font-family="sans-serif" font-size="14" font-weight="bold" lengthAdjust="spacing" textLength="45" x="419.9601" y="63.1853">Cloud</text></g><!--cluster Services--><g id="cluster_Services"><polygon fill="none" points="70.4601,90.1902,80.4601,80.1902,814.4601,80.1902,814.4601,1222.1902,804.4601,1232.1902,70.4601,1232.1902,70.4601,90.1902" style="stroke:#181818;stroke-width:1.0;"/><line style="stroke:#181818;stroke-width:1.0;" x1="804.4601" x2="814.4601" y1="90.1902" y2="80.1902"/><line style="stroke:#181818;stroke-width:1.0;" x1="70.4601" x2="804.4601" y1="90.1902" y2="90.1902"/><line style="stroke:#181818;stroke-width:1.0;" x1="804.4601" x2="804.4601" y1="90.1902" y2="1232.1902"/><text fill="#000000" font-family="sans-serif" font-size="14" font-weight="bold" lengthAdjust="spacing" textLength="68" x="404.4601" y="106.1853">Services</text></g><!--cluster Backend--><g id="cluster_Backend"><polygon fill="none" points="102.4601,281.1902,112.4601,271.1902,782.4601,271.1902,782.4601,1190.1902,772.4601,1200.1902,102.4601,1200.1902,102.4601,281.1902" style="stroke:#181818;stroke-width:1.0;"/><line style="stroke:#181818;stroke-width:1.0;" x1="772.4601" x2="782.4601" y1="281.1902" y2="271.1902"/><line style="stroke:#181818;stroke-width:1.0;" x1="102.4601" x2="772.4601" y1="281.1902" y2="281.1902"/><line style="stroke:#181818;stroke-width:1.0;" x1="772.4601" x2="772.4601" y1="281.1902" y2="1200.1902"/><text fill="#000000" font-family="sans-serif" font-size="14" font-weight="bold" lengthAdjust="spacing" textLength="67" x="404.9601" y="297.1853">Backend</text></g><!--cluster DB--><g id="cluster_DB"><path d="M150.4601,722.1902 C150.4601,712.1902 274.4601,712.1902 274.4601,712.1902 C274.4601,712.1902 398.4601,712.1902 398.4601,722.1902 L398.4601,902.1902 C398.4601,912.1902 274.4601,912.1902 274.4601,912.1902 C274.4601,912.1902 150.4601,912.1902 150.4601,902.1902 L150.4601,722.1902 " fill="none" style="stroke:#181818;stroke-width:1.0;"/><path d="M150.4601,722.1902 C150.4601,732.1902 274.4601,732.1902 274.4601,732.1902 C274.4601,732.1902 398.4601,732.1902 398.4601,722.1902 " fill="none" style="stroke:#181818;stroke-width:1.0;"/><text fill="#000000" font-family="sans-serif" font-size="14" font-weight="bold" lengthAdjust="spacing" textLength="21" x="263.9601" y="747.1853">DB</text></g><!--cluster MongoDB--><g id="cluster_MongoDB"><polygon fill="none" points="190.4601,788.1902,200.4601,778.1902,366.4601,778.1902,366.4601,870.1902,356.4601,880.1902,190.4601,880.1902,190.4601,788.1902" style="stroke:#181818;stroke-width:1.0;"/><line style="stroke:#181818;stroke-width:1.0;" x1="356.4601" x2="366.4601" y1="788.1902" y2="778.1902"/><line style="stroke:#181818;stroke-width:1.0;" x1="190.4601" x2="356.4601" y1="788.1902" y2="788.1902"/><line style="stroke:#181818;stroke-width:1.0;" x1="356.4601" x2="356.4601" y1="788.1902" y2="880.1902"/><text fill="#000000" font-family="sans-serif" font-size="14" font-weight="bold" lengthAdjust="spacing" textLength="74" x="237.4601" y="804.1853">MongoDB</text></g><!--cluster ELKStack--><g id="cluster_ELKStack"><polygon fill="none" points="430.4601,788.1902,440.4601,778.1902,750.4601,778.1902,750.4601,1158.1902,740.4601,1168.1902,430.4601,1168.1902,430.4601,788.1902" style="stroke:#181818;stroke-width:1.0;"/><line style="stroke:#181818;stroke-width:1.0;" x1="740.4601" x2="750.4601" y1="788.1902" y2="778.1902"/><line style="stroke:#181818;stroke-width:1.0;" x1="430.4601" x2="740.4601" y1="788.1902" y2="788.1902"/><line style="stroke:#181818;stroke-width:1.0;" x1="740.4601" x2="740.4601" y1="788.1902" y2="1168.1902"/><text fill="#000000" font-family="sans-serif" font-size="14" font-weight="bold" lengthAdjust="spacing" textLength="72" x="550.4601" y="804.1853">ELKStack</text></g><!--cluster Gunicorn--><g id="cluster_Gunicorn"><polygon fill="none" points="299.4601,432.1902,309.4601,422.1902,458.4601,422.1902,458.4601,530.1902,448.4601,540.1902,299.4601,540.1902,299.4601,432.1902" style="stroke:#181818;stroke-width:1.0;"/><line style="stroke:#181818;stroke-width:1.0;" x1="448.4601" x2="458.4601" y1="432.1902" y2="422.1902"/><line style="stroke:#181818;stroke-width:1.0;" x1="299.4601" x2="448.4601" y1="432.1902" y2="432.1902"/><line style="stroke:#181818;stroke-width:1.0;" x1="448.4601" x2="448.4601" y1="432.1902" y2="540.1902"/><text fill="#000000" font-family="sans-serif" font-size="14" font-weight="bold" lengthAdjust="spacing" textLength="72" x="338.9601" y="448.1853">Gunicorn</text></g><!--cluster Frontend--><g id="cluster_Frontend"><polygon fill="none" points="423.4601,138.1902,433.4601,128.1902,571.4601,128.1902,571.4601,220.1902,561.4601,230.1902,423.4601,230.1902,423.4601,138.1902" style="stroke:#181818;stroke-width:1.0;"/><line style="stroke:#181818;stroke-width:1.0;" x1="561.4601" x2="571.4601" y1="138.1902" y2="128.1902"/><line style="stroke:#181818;stroke-width:1.0;" x1="423.4601" x2="561.4601" y1="138.1902" y2="138.1902"/><line style="stroke:#181818;stroke-width:1.0;" x1="561.4601" x2="561.4601" y1="138.1902" y2="230.1902"/><text fill="#000000" font-family="sans-serif" font-size="14" font-weight="bold" lengthAdjust="spacing" textLength="72" x="457.4601" y="154.1853">Frontend</text></g><!--cluster DevOps--><g id="cluster_DevOps"><polygon fill="none" points="972.4601,90.1902,982.4601,80.1902,1384.4601,80.1902,1384.4601,371.1902,1374.4601,381.1902,972.4601,381.1902,972.4601,90.1902" style="stroke:#181818;stroke-width:1.0;"/><line style="stroke:#181818;stroke-width:1.0;" x1="1374.4601" x2="1384.4601" y1="90.1902" y2="80.1902"/><line style="stroke:#181818;stroke-width:1.0;" x1="972.4601" x2="1374.4601" y1="90.1902" y2="90.1902"/><line style="stroke:#181818;stroke-width:1.0;" x1="1374.4601" x2="1374.4601" y1="90.1902" y2="381.1902"/><text fill="#000000" font-family="sans-serif" font-size="14" font-weight="bold" lengthAdjust="spacing" textLength="61" x="1143.9601" y="106.1853">DevOps</text></g><!--cluster GitHub--><g id="cluster_GitHub"><polygon fill="none" points="1231.4601,138.1902,1241.4601,128.1902,1360.4601,128.1902,1360.4601,220.1902,1350.4601,230.1902,1231.4601,230.1902,1231.4601,138.1902" style="stroke:#181818;stroke-width:1.0;"/><line style="stroke:#181818;stroke-width:1.0;" x1="1350.4601" x2="1360.4601" y1="138.1902" y2="128.1902"/><line style="stroke:#181818;stroke-width:1.0;" x1="1231.4601" x2="1350.4601" y1="138.1902" y2="138.1902"/><line style="stroke:#181818;stroke-width:1.0;" x1="1350.4601" x2="1350.4601" y1="138.1902" y2="230.1902"/><text fill="#000000" font-family="sans-serif" font-size="14" font-weight="bold" lengthAdjust="spacing" textLength="53" x="1265.4601" y="154.1853">GitHub</text></g><!--entity MLModel--><g id="elem_MLModel"><polygon fill="#F1F1F1" points="86.9601,178.1902,96.9601,168.1902,187.9601,168.1902,187.9601,204.487,177.9601,214.487,86.9601,214.487,86.9601,178.1902" style="stroke:#181818;stroke-width:0.5;"/><line style="stroke:#181818;stroke-width:0.5;" x1="177.9601" x2="187.9601" y1="178.1902" y2="168.1902"/><line style="stroke:#181818;stroke-width:0.5;" x1="86.9601" x2="177.9601" y1="178.1902" y2="178.1902"/><line style="stroke:#181818;stroke-width:0.5;" x1="177.9601" x2="177.9601" y1="178.1902" y2="214.487"/><text fill="#000000" font-family="sans-serif" font-size="14" lengthAdjust="spacing" textLength="61" x="101.9601" y="201.1853">MLModel</text></g><!--entity Kafka--><g id="elem_Kafka"><polygon fill="#F1F1F1" points="429.9601,605.1902,439.9601,595.1902,506.9601,595.1902,506.9601,631.487,496.9601,641.487,429.9601,641.487,429.9601,605.1902" style="stroke:#181818;stroke-width:0.5;"/><line style="stroke:#181818;stroke-width:0.5;" x1="496.9601" x2="506.9601" y1="605.1902" y2="595.1902"/><line style="stroke:#181818;stroke-width:0.5;" x1="429.9601" x2="496.9601" y1="605.1902" y2="605.1902"/><line style="stroke:#181818;stroke-width:0.5;" x1="496.9601" x2="496.9601" y1="605.1902" y2="641.487"/><text fill="#000000" font-family="sans-serif" font-size="14" lengthAdjust="spacing" textLength="37" x="444.9601" y="628.1853">Kafka</text></g><!--entity NginX--><g id="elem_NginX"><polygon fill="#F1F1F1" points="301.4601,329.1902,311.4601,319.1902,381.4601,319.1902,381.4601,355.487,371.4601,365.487,301.4601,365.487,301.4601,329.1902" style="stroke:#181818;stroke-width:0.5;"/><line style="stroke:#181818;stroke-width:0.5;" x1="371.4601" x2="381.4601" y1="329.1902" y2="319.1902"/><line style="stroke:#181818;stroke-width:0.5;" x1="301.4601" x2="371.4601" y1="329.1902" y2="329.1902"/><line style="stroke:#181818;stroke-width:0.5;" x1="371.4601" x2="371.4601" y1="329.1902" y2="365.487"/><text fill="#000000" font-family="sans-serif" font-size="14" lengthAdjust="spacing" textLength="40" x="316.4601" y="352.1853">NginX</text></g><!--entity FastAPI--><g id="elem_FastAPI"><polygon fill="#F1F1F1" points="148.4601,605.1902,158.4601,595.1902,238.4601,595.1902,238.4601,631.487,228.4601,641.487,148.4601,641.487,148.4601,605.1902" style="stroke:#181818;stroke-width:0.5;"/><line style="stroke:#181818;stroke-width:0.5;" x1="228.4601" x2="238.4601" y1="605.1902" y2="595.1902"/><line style="stroke:#181818;stroke-width:0.5;" x1="148.4601" x2="228.4601" y1="605.1902" y2="605.1902"/><line style="stroke:#181818;stroke-width:0.5;" x1="228.4601" x2="228.4601" y1="605.1902" y2="641.487"/><text fill="#000000" font-family="sans-serif" font-size="14" lengthAdjust="spacing" textLength="50" x="163.4601" y="628.1853">FastAPI</text></g><!--entity MongoExpress--><g id="elem_MongoExpress"><polygon fill="#F1F1F1" points="206.9601,828.1902,216.9601,818.1902,349.9601,818.1902,349.9601,854.487,339.9601,864.487,206.9601,864.487,206.9601,828.1902" style="stroke:#181818;stroke-width:0.5;"/><line style="stroke:#181818;stroke-width:0.5;" x1="339.9601" x2="349.9601" y1="828.1902" y2="818.1902"/><line style="stroke:#181818;stroke-width:0.5;" x1="206.9601" x2="339.9601" y1="828.1902" y2="828.1902"/><line style="stroke:#181818;stroke-width:0.5;" x1="339.9601" x2="339.9601" y1="828.1902" y2="864.487"/><text fill="#000000" font-family="sans-serif" font-size="14" lengthAdjust="spacing" textLength="103" x="221.9601" y="851.1853">MongoExpress</text></g><!--entity ElasticSearch--><g id="elem_ElasticSearch"><polygon fill="#F1F1F1" points="446.4601,993.1902,456.4601,983.1902,578.4601,983.1902,578.4601,1019.487,568.4601,1029.487,446.4601,1029.487,446.4601,993.1902" style="stroke:#181818;stroke-width:0.5;"/><line style="stroke:#181818;stroke-width:0.5;" x1="568.4601" x2="578.4601" y1="993.1902" y2="983.1902"/><line style="stroke:#181818;stroke-width:0.5;" x1="446.4601" x2="568.4601" y1="993.1902" y2="993.1902"/><line style="stroke:#181818;stroke-width:0.5;" x1="568.4601" x2="568.4601" y1="993.1902" y2="1029.487"/><text fill="#000000" font-family="sans-serif" font-size="14" lengthAdjust="spacing" textLength="92" x="461.4601" y="1016.1853">ElasticSearch</text></g><!--entity Logstash--><g id="elem_Logstash"><polygon fill="#F1F1F1" points="446.9601,828.1902,456.9601,818.1902,549.9601,818.1902,549.9601,854.487,539.9601,864.487,446.9601,864.487,446.9601,828.1902" style="stroke:#181818;stroke-width:0.5;"/><line style="stroke:#181818;stroke-width:0.5;" x1="539.9601" x2="549.9601" y1="828.1902" y2="818.1902"/><line style="stroke:#181818;stroke-width:0.5;" x1="446.9601" x2="539.9601" y1="828.1902" y2="828.1902"/><line style="stroke:#181818;stroke-width:0.5;" x1="539.9601" x2="539.9601" y1="828.1902" y2="864.487"/><text fill="#000000" font-family="sans-serif" font-size="14" lengthAdjust="spacing" textLength="63" x="461.9601" y="851.1853">Logstash</text></g><!--entity Kibana--><g id="elem_Kibana"><polygon fill="#F1F1F1" points="469.4601,1116.1902,479.4601,1106.1902,555.4601,1106.1902,555.4601,1142.487,545.4601,1152.487,469.4601,1152.487,469.4601,1116.1902" style="stroke:#181818;stroke-width:0.5;"/><line style="stroke:#181818;stroke-width:0.5;" x1="545.4601" x2="555.4601" y1="1116.1902" y2="1106.1902"/><line style="stroke:#181818;stroke-width:0.5;" x1="469.4601" x2="545.4601" y1="1116.1902" y2="1116.1902"/><line style="stroke:#181818;stroke-width:0.5;" x1="545.4601" x2="545.4601" y1="1116.1902" y2="1152.487"/><text fill="#000000" font-family="sans-serif" font-size="14" lengthAdjust="spacing" textLength="46" x="484.4601" y="1139.1853">Kibana</text></g><!--entity Beats--><g id="elem_Beats"><polygon fill="#F1F1F1" points="585.4601,828.1902,595.4601,818.1902,665.4601,818.1902,665.4601,854.487,655.4601,864.487,585.4601,864.487,585.4601,828.1902" style="stroke:#181818;stroke-width:0.5;"/><line style="stroke:#181818;stroke-width:0.5;" x1="655.4601" x2="665.4601" y1="828.1902" y2="818.1902"/><line style="stroke:#181818;stroke-width:0.5;" x1="585.4601" x2="655.4601" y1="828.1902" y2="828.1902"/><line style="stroke:#181818;stroke-width:0.5;" x1="655.4601" x2="655.4601" y1="828.1902" y2="864.487"/><text fill="#000000" font-family="sans-serif" font-size="14" lengthAdjust="spacing" textLength="40" x="600.4601" y="851.1853">Beats</text></g><!--entity Uvicorn--><g id="elem_Uvicorn"><polygon fill="#F1F1F1" points="342.9601,480.1902,352.9601,470.1902,433.9601,470.1902,433.9601,506.487,423.9601,516.487,342.9601,516.487,342.9601,480.1902" style="stroke:#181818;stroke-width:0.5;"/><line style="stroke:#181818;stroke-width:0.5;" x1="423.9601" x2="433.9601" y1="480.1902" y2="470.1902"/><line style="stroke:#181818;stroke-width:0.5;" x1="342.9601" x2="423.9601" y1="480.1902" y2="480.1902"/><line style="stroke:#181818;stroke-width:0.5;" x1="423.9601" x2="423.9601" y1="480.1902" y2="516.487"/><text fill="#000000" font-family="sans-serif" font-size="14" lengthAdjust="spacing" textLength="51" x="357.9601" y="503.1853">Uvicorn</text></g><!--entity Svelte--><g id="elem_Svelte"><polygon fill="#F1F1F1" points="456.4601,178.1902,466.4601,168.1902,538.4601,168.1902,538.4601,204.487,528.4601,214.487,456.4601,214.487,456.4601,178.1902" style="stroke:#181818;stroke-width:0.5;"/><line style="stroke:#181818;stroke-width:0.5;" x1="528.4601" x2="538.4601" y1="178.1902" y2="168.1902"/><line style="stroke:#181818;stroke-width:0.5;" x1="456.4601" x2="528.4601" y1="178.1902" y2="178.1902"/><line style="stroke:#181818;stroke-width:0.5;" x1="528.4601" x2="528.4601" y1="178.1902" y2="214.487"/><text fill="#000000" font-family="sans-serif" font-size="14" lengthAdjust="spacing" textLength="42" x="471.4601" y="201.1853">Svelte</text></g><!--entity Docker--><g id="elem_Docker"><polygon fill="#F1F1F1" points="1125.4601,178.1902,1135.4601,168.1902,1215.4601,168.1902,1215.4601,204.487,1205.4601,214.487,1125.4601,214.487,1125.4601,178.1902" style="stroke:#181818;stroke-width:0.5;"/><line style="stroke:#181818;stroke-width:0.5;" x1="1205.4601" x2="1215.4601" y1="178.1902" y2="168.1902"/><line style="stroke:#181818;stroke-width:0.5;" x1="1125.4601" x2="1205.4601" y1="178.1902" y2="178.1902"/><line style="stroke:#181818;stroke-width:0.5;" x1="1205.4601" x2="1205.4601" y1="178.1902" y2="214.487"/><text fill="#000000" font-family="sans-serif" font-size="14" lengthAdjust="spacing" textLength="50" x="1140.4601" y="201.1853">Docker</text></g><!--entity Kubernetes--><g id="elem_Kubernetes"><polygon fill="#F1F1F1" points="1120.9601,329.1902,1130.9601,319.1902,1241.9601,319.1902,1241.9601,355.487,1231.9601,365.487,1120.9601,365.487,1120.9601,329.1902" style="stroke:#181818;stroke-width:0.5;"/><line style="stroke:#181818;stroke-width:0.5;" x1="1231.9601" x2="1241.9601" y1="329.1902" y2="319.1902"/><line style="stroke:#181818;stroke-width:0.5;" x1="1120.9601" x2="1231.9601" y1="329.1902" y2="329.1902"/><line style="stroke:#181818;stroke-width:0.5;" x1="1231.9601" x2="1231.9601" y1="329.1902" y2="365.487"/><text fill="#000000" font-family="sans-serif" font-size="14" lengthAdjust="spacing" textLength="81" x="1135.9601" y="352.1853">Kubernetes</text></g><!--entity JenkinsCI--><g id="elem_JenkinsCI"><polygon fill="#F1F1F1" points="988.4601,178.1902,998.4601,168.1902,1090.4601,168.1902,1090.4601,204.487,1080.4601,214.487,988.4601,214.487,988.4601,178.1902" style="stroke:#181818;stroke-width:0.5;"/><line style="stroke:#181818;stroke-width:0.5;" x1="1080.4601" x2="1090.4601" y1="178.1902" y2="168.1902"/><line style="stroke:#181818;stroke-width:0.5;" x1="988.4601" x2="1080.4601" y1="178.1902" y2="178.1902"/><line style="stroke:#181818;stroke-width:0.5;" x1="1080.4601" x2="1080.4601" y1="178.1902" y2="214.487"/><text fill="#000000" font-family="sans-serif" font-size="14" lengthAdjust="spacing" textLength="62" x="1003.4601" y="201.1853">JenkinsCI</text></g><!--entity ArgoCD--><g id="elem_ArgoCD"><polygon fill="#F1F1F1" points="992.9601,329.1902,1002.9601,319.1902,1085.9601,319.1902,1085.9601,355.487,1075.9601,365.487,992.9601,365.487,992.9601,329.1902" style="stroke:#181818;stroke-width:0.5;"/><line style="stroke:#181818;stroke-width:0.5;" x1="1075.9601" x2="1085.9601" y1="329.1902" y2="319.1902"/><line style="stroke:#181818;stroke-width:0.5;" x1="992.9601" x2="1075.9601" y1="329.1902" y2="329.1902"/><line style="stroke:#181818;stroke-width:0.5;" x1="1075.9601" x2="1075.9601" y1="329.1902" y2="365.487"/><text fill="#000000" font-family="sans-serif" font-size="14" lengthAdjust="spacing" textLength="53" x="1007.9601" y="352.1853">ArgoCD</text></g><!--entity Actions--><g id="elem_Actions"><polygon fill="#F1F1F1" points="1251.9601,178.1902,1261.9601,168.1902,1342.9601,168.1902,1342.9601,204.487,1332.9601,214.487,1251.9601,214.487,1251.9601,178.1902" style="stroke:#181818;stroke-width:0.5;"/><line style="stroke:#181818;stroke-width:0.5;" x1="1332.9601" x2="1342.9601" y1="178.1902" y2="168.1902"/><line style="stroke:#181818;stroke-width:0.5;" x1="1251.9601" x2="1332.9601" y1="178.1902" y2="178.1902"/><line style="stroke:#181818;stroke-width:0.5;" x1="1332.9601" x2="1332.9601" y1="178.1902" y2="214.487"/><text fill="#000000" font-family="sans-serif" font-size="14" lengthAdjust="spacing" textLength="51" x="1266.9601" y="201.1853">Actions</text></g><!--entity EndPoint--><g id="elem_EndPoint"><polygon fill="#F1F1F1" points="854.4601,329.1902,864.4601,319.1902,956.4601,319.1902,956.4601,355.487,946.4601,365.487,854.4601,365.487,854.4601,329.1902" style="stroke:#181818;stroke-width:0.5;"/><line style="stroke:#181818;stroke-width:0.5;" x1="946.4601" x2="956.4601" y1="329.1902" y2="319.1902"/><line style="stroke:#181818;stroke-width:0.5;" x1="854.4601" x2="946.4601" y1="329.1902" y2="329.1902"/><line style="stroke:#181818;stroke-width:0.5;" x1="946.4601" x2="946.4601" y1="329.1902" y2="365.487"/><text fill="#000000" font-family="sans-serif" font-size="14" lengthAdjust="spacing" textLength="62" x="869.4601" y="352.1853">EndPoint</text></g><!--link Gunicorn to FastAPI--><g id="link_Gunicorn_FastAPI"><path d="M299.3364,502.9598 C299.2496,503.0535 299.1622,503.1478 299.0742,503.2427 C298.8982,503.4326 298.7199,503.625 298.5393,503.8199 C297.8166,504.5996 297.0568,505.4194 296.2623,506.2766 C289.9064,513.1342 281.3314,522.3858 271.8301,532.6364 C252.8276,553.1377 230.1201,577.6352 214.0501,594.9702 " fill="none" id="Gunicorn-FastAPI" style="stroke:#181818;stroke-width:1.0;stroke-dasharray:7.0,7.0;"/></g><!--link NginX to Gunicorn--><g id="link_NginX_Gunicorn"><path d="M336.1001,365.3302 C333.2001,377.4002 329.5801,392.6002 326.4601,406.1902 C325.4001,410.8102 324.3183,415.5723 323.2353,420.3745 C323.1,420.9748 322.9646,421.5757 322.8292,422.177 " fill="none" id="NginX-Gunicorn" style="stroke:#181818;stroke-width:1.0;stroke-dasharray:7.0,7.0;"/></g><!--link MLModel to Backend--><g id="link_MLModel_Backend"><path d="M127.9901,219.2802 C124.4801,230.3002 120.8001,243.2302 118.4601,255.1902 C117.5689,259.7527 116.7762,264.4713 116.0713,269.2412 C115.9832,269.8375 115.8965,270.4345 115.8111,271.0322 " fill="none" id="MLModel-Backend" style="stroke:#181818;stroke-width:1.0;"/><polygon fill="#181818" points="129.5801,214.3702,122.9987,221.6971,128.0376,219.1263,130.6085,224.1652,129.5801,214.3702" style="stroke:#181818;stroke-width:1.0;"/><polygon fill="#181818" points="115.8111,271.0322,121.0438,262.6884,116.5183,266.0824,113.1243,261.5569,115.8111,271.0322" style="stroke:#181818;stroke-width:1.0;"/></g><!--link Svelte to NginX--><g id="link_Svelte_NginX"><path d="M472.6101,218.0302 C466.1201,224.6602 459.0801,231.7402 452.4601,238.1902 C424.8701,265.0702 392.5001,294.9202 369.8601,315.5402 " fill="none" id="Svelte-NginX" style="stroke:#181818;stroke-width:1.0;"/><polygon fill="#181818" points="476.1601,214.4002,467.0112,218.0466,472.6676,217.9782,472.736,223.6346,476.1601,214.4002" style="stroke:#181818;stroke-width:1.0;"/><polygon fill="#181818" points="366.0301,319.0202,375.3833,315.9349,369.7331,315.6604,370.0076,310.0102,366.0301,319.0202" style="stroke:#181818;stroke-width:1.0;"/></g><!--link Svelte to EndPoint--><g id="link_Svelte_EndPoint"><path d="M543.7601,197.5802 C600.0701,205.2802 697.1501,222.3002 774.4601,255.1902 C811.0501,270.7602 848.5701,296.5902 874.0201,315.8902 " fill="none" id="Svelte-EndPoint" style="stroke:#181818;stroke-width:1.0;"/><polygon fill="#181818" points="538.7801,196.9102,547.1618,202.082,543.7349,197.5813,548.2356,194.1543,538.7801,196.9102" style="stroke:#181818;stroke-width:1.0;"/><polygon fill="#181818" points="878.0001,318.9202,873.2692,310.282,874.0243,315.8882,868.4181,316.6433,878.0001,318.9202" style="stroke:#181818;stroke-width:1.0;"/></g><!--link FastAPI to DB--><g id="link_FastAPI_DB"><path d="M189.1101,646.6702 C186.8026,661.2327 183.7758,680.3402 180.5231,700.8756 C180.1165,703.4426 179.7064,706.0318 179.2937,708.6373 C179.1906,709.2886 179.0872,709.941 178.9838,710.5943 C178.932,710.921 178.8803,711.2479 178.8284,711.575 " fill="none" id="FastAPI-DB" style="stroke:#181818;stroke-width:1.0;"/><polygon fill="#181818" points="189.9101,641.6002,184.5468,649.8606,189.1252,646.5382,192.4476,651.1165,189.9101,641.6002" style="stroke:#181818;stroke-width:1.0;"/><polygon fill="#181818" points="178.8284,711.575,184.1871,703.3115,179.6106,706.6365,176.2856,702.06,178.8284,711.575" style="stroke:#181818;stroke-width:1.0;"/></g><!--link DB to ElasticSearch--><g id="link_DB_ElasticSearch"><path d="M177.4982,912.4496 C177.8254,912.9816 178.1583,913.5098 178.4968,914.0338 C179.174,915.0819 179.8739,916.1133 180.5974,917.1255 C183.4914,921.1744 186.7626,924.9164 190.4601,928.1902 C227.9601,961.3902 363.5901,985.0702 446.3901,996.8002 " fill="none" id="DB-ElasticSearch" style="stroke:#181818;stroke-width:1.0;stroke-dasharray:7.0,7.0;"/></g><!--link Beats to Kafka--><g id="link_Beats_Kafka"><path d="M623.8101,818.1202 C620.1101,783.1202 608.3401,714.4202 571.4601,671.1902 C555.9301,652.9902 532.4801,640.4502 511.8701,632.2602 " fill="none" id="Beats-to-Kafka" style="stroke:#181818;stroke-width:1.0;"/><polygon fill="#181818" points="506.9701,630.3702,513.9229,637.3458,511.6339,632.1727,516.807,629.8838,506.9701,630.3702" style="stroke:#181818;stroke-width:1.0;"/><text fill="#000000" font-family="sans-serif" font-size="13" lengthAdjust="spacing" textLength="146" x="583.4601" y="684.2571">collect data, forward to</text></g><!--link Kafka to Logstash--><g id="link_Kafka_Logstash"><path d="M429.9501,623.6002 C377.2301,631.1502 292.5601,649.6402 324.4601,688.1902 C336.5701,702.8302 349.8601,686.9402 366.4601,696.1902 C417.7701,724.7902 460.0801,780.6202 482.0801,813.7302 " fill="none" id="Kafka-to-Logstash" style="stroke:#181818;stroke-width:1.0;"/><polygon fill="#181818" points="484.9201,818.0502,483.3177,808.3325,482.1731,813.8724,476.6333,812.7278,484.9201,818.0502" style="stroke:#181818;stroke-width:1.0;"/><text fill="#000000" font-family="sans-serif" font-size="13" lengthAdjust="spacing" textLength="241" x="325.4601" y="684.2571">queueing message as broker, pass to</text></g><!--link Logstash to ElasticSearch--><g id="link_Logstash_ElasticSearch"><path d="M500.3801,864.5102 C502.9101,894.0202 507.3701,945.9802 510.1101,977.8202 " fill="none" id="Logstash-to-ElasticSearch" style="stroke:#181818;stroke-width:1.0;"/><polygon fill="#181818" points="510.5701,983.1402,513.7846,973.8307,510.1419,978.1585,505.814,974.5158,510.5701,983.1402" style="stroke:#181818;stroke-width:1.0;"/><text fill="#000000" font-family="sans-serif" font-size="13" lengthAdjust="spacing" textLength="251" x="508.4601" y="949.2571">aggregate data and processing, ship to</text></g><!--link ElasticSearch to Kibana--><g id="link_ElasticSearch_Kibana"><path d="M512.4601,1029.3802 C512.4601,1049.6002 512.4601,1079.5002 512.4601,1101.1102 " fill="none" id="ElasticSearch-to-Kibana" style="stroke:#181818;stroke-width:1.0;"/><polygon fill="#181818" points="512.4601,1106.1402,516.4601,1097.1402,512.4601,1101.1402,508.4601,1097.1402,512.4601,1106.1402" style="stroke:#181818;stroke-width:1.0;"/><text fill="#000000" font-family="sans-serif" font-size="13" lengthAdjust="spacing" textLength="182" x="513.4601" y="1072.2571">from indexed data, virtualize</text></g><!--link Docker to Kubernetes--><g id="link_Docker_Kubernetes"><path d="M1172.1101,214.5002 C1174.0601,240.9402 1177.3101,285.0102 1179.4201,313.5802 " fill="none" id="Docker-to-Kubernetes" style="stroke:#181818;stroke-width:1.0;"/><polygon fill="#181818" points="1179.8001,318.7302,1183.1469,309.4674,1179.4429,313.7429,1175.1673,310.039,1179.8001,318.7302" style="stroke:#181818;stroke-width:1.0;"/></g><!--link JenkinsCI to ArgoCD--><g id="link_JenkinsCI_ArgoCD"><path d="M1039.4601,214.5002 C1039.4601,240.9402 1039.4601,285.0102 1039.4601,313.5802 " fill="none" id="JenkinsCI-to-ArgoCD" style="stroke:#181818;stroke-width:1.0;"/><polygon fill="#181818" points="1039.4601,318.7302,1043.4601,309.7302,1039.4601,313.7302,1035.4601,309.7302,1039.4601,318.7302" style="stroke:#181818;stroke-width:1.0;"/></g><rect fill="#DDDDDD" height="26.2969" id="_legend" rx="7.5" ry="7.5" style="stroke:#000000;stroke-width:1.0;" width="155" x="616.2301" y="1326.3726"/><text fill="#000000" font-family="sans-serif" font-size="14" lengthAdjust="spacing" textLength="145" x="621.2301" y="1344.3677">Deployment Diagram</text><!--SRC=[XLFHRk8m47ptL-m7q7v0TJe92DVseDTAgDAzRfB5jJ3UdEsalQluztFia001DGyWpundP-sr9acc51bLcl_ko7Z854gBEn5Wq8aLXak2XIbVM1al2irr2VFu-oaWV95VasrKGQx3UlnfzHJ-z2aumsBRLXYqxLUYnnmTGJOxOmOtDf8lqgUInKTboRcHQY-khrARg-NQXtJN0YmqEg-ADQ4jtYvBLYoTHtU5NQeS3LxcPeJUVPLmYPijZk5VKfdVO_Y-DgfWQwxryzf4-gkYFqBNqvT7CPOashBnumjDWz6GzdIsSo_sGlJPRc_x0h6D5ZYGGdGJ1DzkRhuV9aSaruIbre-HVbWxsuHcCn569tYVNc8yTMW5yMZX3WhMcWeV1t826xRlQ4lmB9AWbHukEQZ_r5IJCX9sOU9G4g23tFAMx0GgTAxTsCjZkkFomG2bj2GnX6yB0ePph2o7j-I2wmJScwfQZzDjCM-SfJlOMDw1CYLzKDc5RfJrDMhrZxhtcr7pNBdZ5vjnE4exh9TrJjQG9pTWFybibN7pnm6QMidpR5ZVA_zGv-VFVbfunSRrbvsAfTH3dTu-4ftpVm00]--></g></svg>